<svg xmlns="http://www.w3.org/2000/svg" xmlns:xlink="http://www.w3.org/1999/xlink" viewBox="0 0 524.57 182.24"><defs><style>.cls-1,.cls-2{fill:none;stroke-miterlimit:10;}.cls-1{stroke-width:20px;stroke:url(#Безымянный_градиент_8);}.cls-2{stroke:#fff;stroke-width:12px;}.cls-3{fill:url(#Безымянный_градиент_12);}.cls-4{fill:url(#Безымянный_градиент_9);}.cls-5{fill:url(#Безымянный_градиент_8-2);}.cls-6{font-size:67px;fill:#121214;font-family:GetVoIPGrotesque, GetVoIP Grotesque;letter-spacing:0.18em;}.cls-7{letter-spacing:0.21em;}</style><linearGradient id="Безымянный_градиент_8" x1="2.72" y1="91.27" x2="180.89" y2="91.27" gradientUnits="userSpaceOnUse"><stop offset="0" stop-color="#27509e"/><stop offset="1" stop-color="#0a8fd4"/></linearGradient><linearGradient id="Безымянный_градиент_12" x1="57.96" y1="93.22" x2="96.16" y2="93.22" gradientUnits="userSpaceOnUse"><stop offset="0" stop-color="#27509e"/><stop offset="0.58" stop-color="#0b8dd2"/><stop offset="1" stop-color="#0a8fd4"/></linearGradient><linearGradient id="Безымянный_градиент_9" x1="79.6" y1="80.16" x2="118.28" y2="80.16" gradientUnits="userSpaceOnUse"><stop offset="0" stop-color="#27509e"/><stop offset="0.6" stop-color="#0b8dd2"/><stop offset="1" stop-color="#0a8fd4"/></linearGradient><linearGradient id="Безымянный_градиент_8-2" x1="79.6" y1="111.17" x2="118.28" y2="111.17" xlink:href="#Безымянный_градиент_8"/></defs><g id="Слой_2" data-name="Слой 2"><g id="BACKGROUND"><circle class="cls-1" cx="91.8" cy="91.27" r="79.09"/><circle class="cls-2" cx="91.12" cy="91.12" r="85.12"/><polygon class="cls-3" points="76.94 93.16 96.16 81.79 76.94 70.91 57.96 82.03 57.96 104.4 77.06 115.52 76.94 93.16"/><polygon class="cls-4" points="79.59 69.1 98.58 80.1 98.58 102.58 118.28 91.12 118.28 69.1 98.94 57.73 79.59 69.1"/><polygon class="cls-5" points="79.59 94.36 79.59 116.61 98.94 127.97 118.28 116.73 118.28 94.36 98.94 105.61 79.59 94.36"/><text class="cls-6" transform="translate(199.61 118.6)">NEI<tspan class="cls-7" x="165.76" y="0">R</tspan><tspan x="233.9" y="0">A</tspan></text></g></g></svg>